<svg width="45" height="45" viewBox="0 0 45 45" fill="none" xmlns="http://www.w3.org/2000/svg">
<path d="M33.3546 14.7217C33.3546 8.70117 28.4767 3.82324 22.4561 3.82324C16.4356 3.82324 11.5577 8.70117 11.5577 14.7217C11.5577 18.3604 13.3419 21.5859 16.0841 23.5635C16.0665 23.5723 16.0533 23.5767 16.0445 23.5811C14.0802 24.4116 12.318 25.6025 10.8018 27.123C9.28573 28.6392 8.09921 30.4058 7.26864 32.3745C6.45566 34.2993 6.0206 36.3428 5.97665 38.4434C5.97226 38.6411 6.13046 38.8037 6.32821 38.8037H8.96054C9.1495 38.8037 9.30771 38.6499 9.3121 38.4609C9.39999 35.0684 10.7579 31.8911 13.1617 29.4829C15.6446 26.9912 18.9405 25.6201 22.4561 25.6201C28.4767 25.6201 33.3546 20.7422 33.3546 14.7217ZM22.4561 22.2803C18.2813 22.2803 14.8976 18.8965 14.8976 14.7217C14.8976 10.5469 18.2813 7.16309 22.4561 7.16309C26.6309 7.16309 30.0147 10.5469 30.0147 14.7217C30.0147 18.8965 26.6309 22.2803 22.4561 22.2803ZM27.0704 31.9922H38.672C38.8653 31.9922 39.0235 31.834 39.0235 31.6406V29.1797C39.0235 28.9863 38.8653 28.8281 38.672 28.8281H30.9156L32.9898 26.187C33.0382 26.1255 33.0645 26.0464 33.0645 25.9717C33.0645 25.7783 32.9063 25.6201 32.713 25.6201H29.5225C29.3072 25.6201 29.1051 25.7212 28.9688 25.8882L25.9586 29.7158C25.7652 29.9619 25.6598 30.2695 25.6598 30.5859C25.6642 31.3638 26.2926 31.9922 27.0704 31.9922ZM37.6173 34.8047H26.0157C25.8224 34.8047 25.6642 34.9629 25.6642 35.1562V37.6172C25.6642 37.8105 25.8224 37.9688 26.0157 37.9688H33.7721L31.6978 40.6099C31.6495 40.6714 31.6231 40.7505 31.6231 40.8252C31.6231 41.0186 31.7813 41.1768 31.9747 41.1768H35.1651C35.3805 41.1768 35.5826 41.0757 35.7188 40.9087L38.7291 37.0811C38.9225 36.835 39.0279 36.5273 39.0279 36.2109C39.0235 35.4331 38.3951 34.8047 37.6173 34.8047Z" fill="#0137AE"/>
</svg>
