<svg width="58" height="46" viewBox="0 0 58 46" fill="none" xmlns="http://www.w3.org/2000/svg">
<path d="M3.99268 38.4658H2L1.98926 37.4829H3.72949C4.02311 37.4829 4.27197 37.4399 4.47607 37.354C4.68376 37.2645 4.84131 37.1374 4.94873 36.9727C5.05615 36.8044 5.10986 36.6021 5.10986 36.3657C5.10986 36.1043 5.05973 35.8913 4.95947 35.7266C4.85921 35.5618 4.70524 35.4419 4.49756 35.3667C4.29346 35.2915 4.03206 35.2539 3.71338 35.2539H2.4082V42H1.06006V34.1797H3.71338C4.14307 34.1797 4.5262 34.2209 4.86279 34.3032C5.20296 34.3856 5.49121 34.5145 5.72754 34.6899C5.96745 34.8618 6.14827 35.0802 6.27002 35.3452C6.39535 35.6102 6.45801 35.9253 6.45801 36.2905C6.45801 36.6128 6.38102 36.9082 6.22705 37.1768C6.07308 37.4417 5.8457 37.6584 5.54492 37.8267C5.24414 37.995 4.86995 38.0952 4.42236 38.1274L3.99268 38.4658ZM3.93359 42H1.57568L2.18262 40.9312H3.93359C4.23796 40.9312 4.49219 40.881 4.69629 40.7808C4.90039 40.6769 5.05257 40.5355 5.15283 40.3564C5.25667 40.1738 5.30859 39.9608 5.30859 39.7173C5.30859 39.4631 5.26383 39.2428 5.17432 39.0566C5.0848 38.8669 4.94336 38.7218 4.75 38.6216C4.55664 38.5177 4.3042 38.4658 3.99268 38.4658H2.47803L2.48877 37.4829H4.45996L4.76611 37.8535C5.1958 37.8678 5.5485 37.9627 5.82422 38.1382C6.10352 38.3136 6.3112 38.541 6.44727 38.8203C6.58333 39.0996 6.65137 39.4004 6.65137 39.7227C6.65137 40.2204 6.54215 40.6375 6.32373 40.9741C6.10889 41.3107 5.79915 41.5667 5.39453 41.7422C4.98991 41.9141 4.50293 42 3.93359 42ZM8.13428 39.1587V39.0352C8.13428 38.6162 8.19515 38.2277 8.31689 37.8696C8.43864 37.508 8.6141 37.1947 8.84326 36.9297C9.07601 36.6611 9.35889 36.4535 9.69189 36.3066C10.0285 36.1562 10.408 36.0811 10.8306 36.0811C11.2567 36.0811 11.6362 36.1562 11.9692 36.3066C12.3058 36.4535 12.5905 36.6611 12.8232 36.9297C13.056 37.1947 13.2332 37.508 13.355 37.8696C13.4767 38.2277 13.5376 38.6162 13.5376 39.0352V39.1587C13.5376 39.5776 13.4767 39.9661 13.355 40.3242C13.2332 40.6823 13.056 40.9956 12.8232 41.2642C12.5905 41.5291 12.3076 41.7368 11.9746 41.8872C11.6416 42.034 11.2638 42.1074 10.8413 42.1074C10.4152 42.1074 10.0339 42.034 9.69727 41.8872C9.36426 41.7368 9.08138 41.5291 8.84863 41.2642C8.61589 40.9956 8.43864 40.6823 8.31689 40.3242C8.19515 39.9661 8.13428 39.5776 8.13428 39.1587ZM9.42871 39.0352V39.1587C9.42871 39.4201 9.45557 39.6672 9.50928 39.8999C9.56299 40.1326 9.64714 40.3368 9.76172 40.5122C9.8763 40.6877 10.0231 40.8255 10.2021 40.9258C10.3812 41.026 10.5942 41.0762 10.8413 41.0762C11.0812 41.0762 11.2889 41.026 11.4644 40.9258C11.6434 40.8255 11.7902 40.6877 11.9048 40.5122C12.0194 40.3368 12.1035 40.1326 12.1572 39.8999C12.2145 39.6672 12.2432 39.4201 12.2432 39.1587V39.0352C12.2432 38.7773 12.2145 38.5339 12.1572 38.3047C12.1035 38.0719 12.0176 37.866 11.8994 37.687C11.7848 37.508 11.638 37.3683 11.459 37.2681C11.2835 37.1642 11.0741 37.1123 10.8306 37.1123C10.5871 37.1123 10.3758 37.1642 10.1968 37.2681C10.0213 37.3683 9.8763 37.508 9.76172 37.687C9.64714 37.866 9.56299 38.0719 9.50928 38.3047C9.45557 38.5339 9.42871 38.7773 9.42871 39.0352ZM11.1904 33.75L12.6782 35.2324V35.2915H11.6309L10.8091 34.4482L9.9873 35.2915H8.96143V35.2217L10.4277 33.75H11.1904ZM10.0786 43.3105C10.0786 43.1243 10.1431 42.9686 10.272 42.8433C10.4045 42.7179 10.5853 42.6553 10.8145 42.6553C11.0436 42.6553 11.2244 42.7179 11.3569 42.8433C11.4894 42.9686 11.5557 43.1243 11.5557 43.3105C11.5557 43.4932 11.4894 43.6471 11.3569 43.7725C11.2244 43.8978 11.0436 43.9604 10.8145 43.9604C10.5853 43.9604 10.4045 43.8978 10.272 43.7725C10.1431 43.6471 10.0786 43.4932 10.0786 43.3105ZM21.6221 40.4263C21.6221 40.2974 21.5898 40.181 21.5254 40.0771C21.4609 39.9697 21.3374 39.873 21.1548 39.7871C20.9757 39.7012 20.7108 39.6224 20.3599 39.5508C20.0519 39.4827 19.769 39.4022 19.5112 39.3091C19.257 39.2124 19.0386 39.096 18.856 38.96C18.6733 38.8239 18.5319 38.6628 18.4316 38.4766C18.3314 38.2904 18.2812 38.0755 18.2812 37.832C18.2812 37.5957 18.3332 37.3719 18.437 37.1606C18.5409 36.9494 18.6895 36.7632 18.8828 36.6021C19.0762 36.4409 19.3107 36.3138 19.5864 36.2207C19.8657 36.1276 20.1772 36.0811 20.521 36.0811C21.008 36.0811 21.4251 36.1634 21.7725 36.3281C22.1234 36.4893 22.3919 36.7095 22.5781 36.9888C22.7643 37.2645 22.8574 37.576 22.8574 37.9233H21.563C21.563 37.7694 21.5236 37.6261 21.4448 37.4937C21.3696 37.3576 21.255 37.2484 21.1011 37.166C20.9471 37.0801 20.7537 37.0371 20.521 37.0371C20.299 37.0371 20.1146 37.0729 19.9678 37.1445C19.8245 37.2126 19.7171 37.3021 19.6455 37.4131C19.5775 37.5241 19.5435 37.6458 19.5435 37.7783C19.5435 37.875 19.5614 37.9627 19.5972 38.0415C19.6366 38.1167 19.701 38.1865 19.7905 38.251C19.88 38.3118 20.0018 38.3691 20.1558 38.4229C20.3133 38.4766 20.5103 38.5285 20.7466 38.5786C21.1906 38.6717 21.5719 38.7917 21.8906 38.9385C22.2129 39.0817 22.46 39.2679 22.6318 39.4971C22.8037 39.7227 22.8896 40.0091 22.8896 40.3564C22.8896 40.6143 22.8341 40.8506 22.7231 41.0654C22.6157 41.2767 22.4582 41.4611 22.2505 41.6187C22.0428 41.7726 21.7939 41.8926 21.5039 41.9785C21.2174 42.0645 20.8952 42.1074 20.5371 42.1074C20.0107 42.1074 19.5649 42.0143 19.1997 41.8281C18.8345 41.6383 18.557 41.3966 18.3672 41.103C18.181 40.8058 18.0879 40.4979 18.0879 40.1792H19.3394C19.3537 40.4191 19.4199 40.6107 19.5381 40.7539C19.6598 40.8936 19.8102 40.9956 19.9893 41.0601C20.1719 41.1209 20.3599 41.1514 20.5532 41.1514C20.786 41.1514 20.9811 41.1209 21.1387 41.0601C21.2962 40.9956 21.4162 40.9097 21.4985 40.8022C21.5809 40.6912 21.6221 40.5659 21.6221 40.4263ZM30.0767 35.6997H30.9253C30.9253 36.1151 30.8662 36.4642 30.748 36.7471C30.6335 37.0299 30.4347 37.243 30.1519 37.3862C29.8726 37.5295 29.484 37.6011 28.9863 37.6011L28.9917 36.9297C29.3283 36.9297 29.5718 36.8867 29.7222 36.8008C29.8761 36.7113 29.9728 36.577 30.0122 36.3979C30.0552 36.2153 30.0767 35.9826 30.0767 35.6997ZM28.0195 40.6304V36.1885H29.3193V42H28.0947L28.0195 40.6304ZM28.2021 39.4219L28.6372 39.4111C28.6372 39.8014 28.5942 40.1613 28.5083 40.4907C28.4224 40.8166 28.2899 41.1012 28.1108 41.3447C27.9318 41.5846 27.7026 41.7726 27.4233 41.9087C27.144 42.0412 26.8092 42.1074 26.4189 42.1074C26.1361 42.1074 25.8765 42.0662 25.6401 41.9839C25.4038 41.9015 25.1997 41.7744 25.0278 41.6025C24.8595 41.4307 24.7288 41.2069 24.6357 40.9312C24.5426 40.6554 24.4961 40.326 24.4961 39.9429V36.1885H25.7905V39.9536C25.7905 40.1649 25.8156 40.3421 25.8657 40.4854C25.9159 40.625 25.9839 40.7378 26.0698 40.8237C26.1558 40.9097 26.256 40.9705 26.3706 41.0063C26.4852 41.0422 26.6069 41.0601 26.7358 41.0601C27.1047 41.0601 27.3947 40.9884 27.606 40.8452C27.8208 40.6984 27.973 40.5015 28.0625 40.2544C28.1556 40.0073 28.2021 39.7298 28.2021 39.4219ZM35.2549 40.6304V36.1885H36.5547V42H35.3301L35.2549 40.6304ZM35.4375 39.4219L35.8726 39.4111C35.8726 39.8014 35.8296 40.1613 35.7437 40.4907C35.6577 40.8166 35.5252 41.1012 35.3462 41.3447C35.1672 41.5846 34.938 41.7726 34.6587 41.9087C34.3794 42.0412 34.0446 42.1074 33.6543 42.1074C33.3714 42.1074 33.1118 42.0662 32.8755 41.9839C32.6392 41.9015 32.4351 41.7744 32.2632 41.6025C32.0949 41.4307 31.9642 41.2069 31.8711 40.9312C31.778 40.6554 31.7314 40.326 31.7314 39.9429V36.1885H33.0259V39.9536C33.0259 40.1649 33.0509 40.3421 33.1011 40.4854C33.1512 40.625 33.2192 40.7378 33.3052 40.8237C33.3911 40.9097 33.4914 40.9705 33.606 41.0063C33.7205 41.0422 33.8423 41.0601 33.9712 41.0601C34.34 41.0601 34.63 40.9884 34.8413 40.8452C35.0562 40.6984 35.2083 40.5015 35.2979 40.2544C35.391 40.0073 35.4375 39.7298 35.4375 39.4219ZM44.2847 36.1885V37.1338H41.0083V36.1885H44.2847ZM41.9536 34.7651H43.248V40.394C43.248 40.5731 43.2731 40.7109 43.3232 40.8076C43.377 40.9007 43.4504 40.9634 43.5435 40.9956C43.6366 41.0278 43.7458 41.0439 43.8711 41.0439C43.9606 41.0439 44.0465 41.0386 44.1289 41.0278C44.2113 41.0171 44.2775 41.0063 44.3276 40.9956L44.333 41.9839C44.2256 42.0161 44.1003 42.0448 43.957 42.0698C43.8174 42.0949 43.6562 42.1074 43.4736 42.1074C43.1764 42.1074 42.9132 42.0555 42.6841 41.9517C42.4549 41.8442 42.2759 41.6706 42.147 41.4307C42.0181 41.1908 41.9536 40.8721 41.9536 40.4746V34.7651ZM49.0601 40.8345V38.063C49.0601 37.8553 49.0225 37.6763 48.9473 37.5259C48.8721 37.3755 48.7575 37.2591 48.6035 37.1768C48.4531 37.0944 48.2633 37.0532 48.0342 37.0532C47.8229 37.0532 47.6403 37.089 47.4863 37.1606C47.3324 37.2323 47.2124 37.3289 47.1265 37.4507C47.0405 37.5724 46.9976 37.7103 46.9976 37.8643H45.7085C45.7085 37.6351 45.764 37.4131 45.875 37.1982C45.986 36.9834 46.1471 36.7918 46.3584 36.6235C46.5697 36.4552 46.8221 36.3228 47.1157 36.2261C47.4093 36.1294 47.7388 36.0811 48.104 36.0811C48.5409 36.0811 48.9276 36.1545 49.2642 36.3013C49.6043 36.4481 49.8711 36.6701 50.0645 36.9673C50.2614 37.2609 50.3599 37.6297 50.3599 38.0737V40.6572C50.3599 40.9222 50.3778 41.1603 50.4136 41.3716C50.453 41.5793 50.5085 41.7601 50.5801 41.9141V42H49.2534C49.1925 41.8604 49.1442 41.6831 49.1084 41.4683C49.0762 41.2498 49.0601 41.0386 49.0601 40.8345ZM49.248 38.4658L49.2588 39.2661H48.3296C48.0897 39.2661 47.8784 39.2894 47.6958 39.3359C47.5132 39.3789 47.361 39.4434 47.2393 39.5293C47.1175 39.6152 47.0262 39.7191 46.9653 39.8408C46.9045 39.9626 46.874 40.1004 46.874 40.2544C46.874 40.4084 46.9098 40.5498 46.9814 40.6787C47.0531 40.804 47.1569 40.9025 47.293 40.9741C47.4326 41.0457 47.6009 41.0815 47.7979 41.0815C48.0628 41.0815 48.2938 41.0278 48.4907 40.9204C48.6912 40.8094 48.8488 40.6751 48.9634 40.5176C49.078 40.3564 49.1388 40.2043 49.146 40.061L49.5649 40.6357C49.522 40.7826 49.4486 40.9401 49.3447 41.1084C49.2409 41.2767 49.1048 41.4378 48.9365 41.5918C48.7718 41.7422 48.5731 41.8657 48.3403 41.9624C48.1112 42.0591 47.8462 42.1074 47.5454 42.1074C47.1659 42.1074 46.8275 42.0322 46.5303 41.8818C46.2331 41.7279 46.0003 41.522 45.832 41.2642C45.6637 41.0028 45.5796 40.7074 45.5796 40.3779C45.5796 40.07 45.6369 39.7979 45.7515 39.5615C45.8696 39.3216 46.0415 39.1211 46.2671 38.96C46.4963 38.7988 46.7756 38.6771 47.105 38.5947C47.4344 38.5088 47.8104 38.4658 48.2329 38.4658H49.248ZM48.5337 33.75L50.0215 35.2324V35.2915H48.9741L48.1523 34.4482L47.3306 35.2915H46.3047V35.2217L47.771 33.75H48.5337ZM46.9814 43.2461C46.9814 43.0599 47.0459 42.9041 47.1748 42.7788C47.3073 42.6535 47.4881 42.5908 47.7173 42.5908C47.9465 42.5908 48.1273 42.6535 48.2598 42.7788C48.3923 42.9041 48.4585 43.0599 48.4585 43.2461C48.4585 43.4287 48.3923 43.5827 48.2598 43.708C48.1273 43.8333 47.9465 43.896 47.7173 43.896C47.4881 43.896 47.3073 43.8333 47.1748 43.708C47.0459 43.5827 46.9814 43.4287 46.9814 43.2461ZM53.5132 37.3057V44.2344H52.2188V36.1885H53.4111L53.5132 37.3057ZM57.2998 39.0405V39.1533C57.2998 39.5758 57.2497 39.9679 57.1494 40.3296C57.0527 40.6877 56.9077 41.001 56.7144 41.2695C56.5246 41.5345 56.29 41.7404 56.0107 41.8872C55.7314 42.034 55.4092 42.1074 55.0439 42.1074C54.6823 42.1074 54.3654 42.0412 54.0933 41.9087C53.8247 41.7726 53.5973 41.5811 53.4111 41.334C53.2249 41.0869 53.0745 40.7969 52.96 40.4639C52.849 40.1273 52.7702 39.7585 52.7236 39.3574V38.9224C52.7702 38.4963 52.849 38.1095 52.96 37.7622C53.0745 37.4149 53.2249 37.1159 53.4111 36.8652C53.5973 36.6146 53.8247 36.4212 54.0933 36.2852C54.3618 36.1491 54.6751 36.0811 55.0332 36.0811C55.3984 36.0811 55.7225 36.1527 56.0054 36.2959C56.2882 36.4355 56.5264 36.6361 56.7197 36.8975C56.9131 37.1553 57.0581 37.4668 57.1548 37.832C57.2515 38.1937 57.2998 38.5965 57.2998 39.0405ZM56.0054 39.1533V39.0405C56.0054 38.772 55.9803 38.5231 55.9302 38.2939C55.88 38.0612 55.8013 37.8571 55.6938 37.6816C55.5864 37.5062 55.4486 37.3701 55.2803 37.2734C55.1156 37.1732 54.9168 37.123 54.6841 37.123C54.4549 37.123 54.258 37.1624 54.0933 37.2412C53.9285 37.3164 53.7907 37.422 53.6797 37.5581C53.5687 37.6942 53.4827 37.8535 53.4219 38.0361C53.361 38.2152 53.318 38.4103 53.293 38.6216V39.6636C53.3359 39.9214 53.4093 40.1577 53.5132 40.3726C53.617 40.5874 53.7638 40.7593 53.9536 40.8882C54.147 41.0135 54.394 41.0762 54.6948 41.0762C54.9276 41.0762 55.1263 41.026 55.291 40.9258C55.4557 40.8255 55.59 40.6877 55.6938 40.5122C55.8013 40.3332 55.88 40.1273 55.9302 39.8945C55.9803 39.6618 56.0054 39.4147 56.0054 39.1533Z" fill="black"/>
<path d="M35.5416 6.0415V2.4165H19.8333V22.9582L23.4583 21.1457" stroke="black" stroke-width="2" stroke-linecap="round" stroke-linejoin="round"/>
<path d="M23.4583 26.5832V6.0415H39.1666V26.5832L31.3124 22.7932L23.4583 26.5832Z" stroke="black" stroke-width="2" stroke-linejoin="round"/>
</svg>
