<svg width="45" height="45" viewBox="0 0 45 45" fill="none" xmlns="http://www.w3.org/2000/svg">
<path d="M11.25 37.5C13.3125 37.5 15 35.8125 15 33.75V20.625C15 18.5625 13.3125 16.875 11.25 16.875C9.1875 16.875 7.5 18.5625 7.5 20.625V33.75C7.5 35.8125 9.1875 37.5 11.25 37.5ZM30 28.125V33.75C30 35.8125 31.6875 37.5 33.75 37.5C35.8125 37.5 37.5 35.8125 37.5 33.75V28.125C37.5 26.0625 35.8125 24.375 33.75 24.375C31.6875 24.375 30 26.0625 30 28.125ZM22.5 37.5C24.5625 37.5 26.25 35.8125 26.25 33.75V11.25C26.25 9.1875 24.5625 7.5 22.5 7.5C20.4375 7.5 18.75 9.1875 18.75 11.25V33.75C18.75 35.8125 20.4375 37.5 22.5 37.5Z" fill="#0137AE"/>
</svg>
