<svg width="45" height="45" viewBox="0 0 45 45" fill="none" xmlns="http://www.w3.org/2000/svg">
<path d="M22.5 20.625C25.6066 20.625 28.125 18.1066 28.125 15C28.125 11.8934 25.6066 9.375 22.5 9.375C19.3934 9.375 16.875 11.8934 16.875 15C16.875 18.1066 19.3934 20.625 22.5 20.625Z" stroke="#0137AE" stroke-width="2" stroke-linecap="round"/>
<path d="M28.6275 15C28.872 14.5701 29.199 14.1928 29.5899 13.8897C29.9807 13.5867 30.4277 13.364 30.9049 13.2345C31.3822 13.1049 31.8804 13.071 32.3708 13.1347C32.8612 13.1985 33.3342 13.3586 33.7625 13.6059C34.1908 13.8532 34.5659 14.1827 34.8663 14.5756C35.1668 14.9684 35.3865 15.4168 35.5129 15.8949C35.6393 16.3731 35.6699 16.8715 35.6029 17.3615C35.5359 17.8515 35.3726 18.3234 35.1225 18.75C34.6217 19.6043 33.8033 20.2258 32.846 20.4789C31.8886 20.732 30.87 20.5962 30.0124 20.101C29.1548 19.6059 28.5279 18.7916 28.2685 17.836C28.009 16.8803 28.1381 15.8608 28.6275 15ZM9.87752 15C10.122 14.5701 10.449 14.1928 10.8399 13.8897C11.2307 13.5867 11.6777 13.364 12.1549 13.2345C12.6322 13.1049 13.1304 13.071 13.6208 13.1347C14.1112 13.1985 14.5842 13.3586 15.0125 13.6059C15.4408 13.8532 15.8159 14.1827 16.1163 14.5756C16.4168 14.9684 16.6365 15.4168 16.7629 15.8949C16.8893 16.3731 16.9199 16.8715 16.8529 17.3615C16.7859 17.8515 16.6226 18.3234 16.3725 18.75C15.8717 19.6043 15.0533 20.2258 14.096 20.4789C13.1386 20.732 12.12 20.5962 11.2624 20.101C10.4048 19.6059 9.77792 18.7916 9.51846 17.836C9.25901 16.8803 9.38809 15.8608 9.87752 15Z" stroke="#0137AE" stroke-width="2"/>
<path d="M31.6538 33.75L29.8163 34.1194L30.1163 35.625H31.6538V33.75ZM27.7125 27.5831L26.58 26.0887L24.4107 27.7369L26.7244 29.175L27.7125 27.5831ZM37.2525 31.875H31.6557L31.6538 35.625H37.2525V31.875ZM37.0838 32.3213C37.0638 32.2588 37.0606 32.1922 37.0744 32.1281C37.0844 32.0613 37.1123 31.9985 37.155 31.9462C37.215 31.8713 37.2657 31.875 37.2525 31.875V35.625C39.4013 35.625 41.5144 33.6 40.6182 31.0687L37.0838 32.3213ZM31.875 28.125C34.9538 28.125 36.3807 30.3394 37.0838 32.3213L40.6182 31.0687C39.7463 28.6106 37.4025 24.375 31.875 24.375V28.125ZM28.8488 29.0756C29.5688 28.5281 30.5288 28.125 31.875 28.125V24.375C29.6963 24.375 27.9432 25.0537 26.58 26.0887L28.8488 29.0756ZM26.7244 29.175C28.6725 30.3863 29.4882 32.4975 29.8144 34.1194L33.4894 33.3806C33.0825 31.35 31.9444 28.005 28.7044 25.9894L26.7244 29.175ZM17.2875 27.5813L18.2757 29.175L20.5894 27.7369L18.42 26.0887L17.2875 27.5813ZM13.3463 33.75V35.625H14.8819L15.1857 34.1194L13.3463 33.75ZM13.125 28.125C14.4713 28.125 15.4313 28.5281 16.1513 29.0756L18.42 26.0887C17.0569 25.0537 15.3038 24.375 13.125 24.375V28.125ZM7.91628 32.3213C8.6194 30.3394 10.0463 28.125 13.125 28.125V24.375C7.59753 24.375 5.25378 28.6106 4.3819 31.0687L7.91628 32.3213ZM7.74753 31.875C7.73628 31.875 7.78503 31.8713 7.8469 31.9462C7.88899 31.9987 7.91619 32.0615 7.92565 32.1281C7.93946 32.1922 7.93623 32.2588 7.91628 32.3213L4.3819 31.0687C3.48753 33.6 5.60065 35.625 7.7494 35.625L7.74753 31.875ZM13.3463 31.875H7.74753L7.7494 35.625H13.3463V31.875ZM15.1838 34.1194C15.5119 32.4975 16.3275 30.3863 18.2775 29.175L16.2938 25.9875C13.0538 28.0031 11.9157 31.35 11.5069 33.3787L15.1838 34.1194Z" fill="#0137AE"/>
<path d="M22.5001 26.25C29.1976 26.25 31.1101 31.0331 31.6558 33.7669C31.8601 34.7813 31.037 35.625 30.0001 35.625H15.0001C13.9651 35.625 13.1401 34.7813 13.3445 33.7669C13.8901 31.0313 15.8026 26.25 22.5001 26.25Z" stroke="#0137AE" stroke-width="2" stroke-linecap="round"/>
</svg>
