<svg width="45" height="45" viewBox="0 0 45 45" fill="none" xmlns="http://www.w3.org/2000/svg">
<g clip-path="url(#clip0_161_1348)">
<path d="M28.7427 5.78461L20.1965 11.2702L21.0627 11.7446L28.6661 6.86399L41.5628 14.1691L34.1655 18.9172L34.5258 19.1144V19.7163L40.3198 15.9971L41.5359 16.686L34.5257 21.1856V22.2159L40.2063 18.5696L41.5359 19.3228L34.5257 23.8224V24.8527L40.2063 21.2064L41.5359 21.9596L34.5257 26.4592V27.4895L43.3177 21.8461L41.1355 20.6102L43.3176 19.2095L41.1354 17.9734L43.3175 16.5727L41.2488 15.4008L43.3443 14.0556L28.7427 5.78461ZM31.4732 9.71683C29.6241 10.6446 27.1613 10.8016 25.4272 10.1021L22.0372 12.278L33.1908 18.3837L36.406 16.3201C35.1395 15.3202 35.245 13.8284 36.6646 12.6577L31.4732 9.71683ZM19.9955 12.9639L13.7827 17.0151L25.7016 23.8764L25.8185 23.8017C26.0382 23.6602 26.3485 23.4598 26.7187 23.2204C27.4587 22.742 28.4381 22.1077 29.4146 21.4749C30.821 20.5635 31.5458 20.0933 32.2197 19.6561L19.9955 12.9639ZM30.144 13.0667H30.1443C30.4254 13.0684 30.6831 13.1287 30.8755 13.2376C30.9875 13.3011 31.0744 13.3793 31.1312 13.4679C31.188 13.5565 31.2135 13.6536 31.2064 13.7539C31.1993 13.8541 31.1597 13.9555 31.0898 14.0521C31.0199 14.1487 30.9211 14.2388 30.7991 14.3171C30.677 14.3954 30.5342 14.4605 30.3786 14.5086C30.223 14.5567 30.0578 14.5868 29.8923 14.5974C29.7269 14.6079 29.5644 14.5986 29.4143 14.5699C29.2641 14.5413 29.1292 14.4939 29.0173 14.4305C28.7911 14.3024 28.6722 14.1167 28.6865 13.9143C28.7008 13.7119 28.8473 13.5094 29.0937 13.3512C29.2336 13.2614 29.4008 13.1891 29.5826 13.1398C29.7645 13.0906 29.9564 13.0656 30.144 13.0667ZM10.9467 17.2077L1.68257 23.1539L3.75125 24.3257L1.65576 25.6709L3.83791 26.9069L1.65576 28.3077L3.83791 29.5437L1.65576 30.9445L16.2575 39.2156L25.0733 33.5566V32.5266L16.334 38.1361L3.43748 30.8309L4.69036 30.0267L16.2575 36.5787L25.0733 30.9199V29.8898L16.334 35.4994L3.43748 28.1942L4.69036 27.39L16.2575 33.9419L25.0733 28.2832V27.2531L16.334 32.8626L3.43748 25.5574L4.60379 24.8086L16.2845 31.425L25.0733 25.7835V25.3397L24.5916 25.0624L16.3607 30.3456L3.46446 23.0404L11.793 17.6946L10.9466 17.2074L10.9467 17.2077ZM12.7449 18.243L8.62109 20.8898C9.8876 21.8895 9.78213 23.3814 8.36252 24.5522L13.554 27.4931C15.403 26.5652 17.8657 26.4083 19.5998 27.1077L23.6397 24.5146L12.7447 18.2429L12.7449 18.243ZM32.9437 21.0722C32.2367 21.5307 31.6132 21.9355 30.2751 22.8026C29.3762 23.3853 28.4771 23.9675 27.5777 24.5493C27.2071 24.7888 26.8961 24.9896 26.6744 25.1321C26.6664 25.1374 26.6632 25.1392 26.6555 25.1442V32.6961L32.9438 28.4696L32.9437 21.0722ZM15.2785 22.6085C15.5597 22.6103 15.8174 22.6706 16.0098 22.7797C16.2359 22.9078 16.3549 23.0934 16.3406 23.2958C16.3262 23.4982 16.1797 23.7008 15.9333 23.859C15.6869 24.0171 15.3608 24.1179 15.0267 24.1391C14.6926 24.1604 14.3779 24.1004 14.1518 23.9723C13.9257 23.8442 13.8067 23.6586 13.821 23.4562C13.8354 23.2538 13.9818 23.0512 14.2283 22.893C14.3682 22.8032 14.5353 22.731 14.7172 22.6817C14.8991 22.6325 15.091 22.6075 15.2785 22.6086V22.6085Z" fill="#0137AE"/>
</g>
<defs>
<clipPath id="clip0_161_1348">
<rect width="45" height="45" fill="white"/>
</clipPath>
</defs>
</svg>
