<svg width="45" height="45" viewBox="0 0 45 45" fill="none" xmlns="http://www.w3.org/2000/svg">
<path d="M22.5 5.625C20.1187 5.625 18 7.125 17.2125 9.375H5.62496V13.125H9.28121L3.74996 26.25C2.86871 30 5.62496 31.875 10.3125 31.875C15 31.875 17.925 30 16.875 26.25L11.3437 13.125H17.1937C17.8125 14.7188 19.0312 15.9375 20.625 16.5562V37.5H3.74996V41.25H41.25V37.5H24.375V16.5375C25.9687 15.9375 27.1875 14.7188 27.7875 13.125H33.6562L28.125 26.25C27.2437 30 30 31.875 34.6875 31.875C39.375 31.875 42.3 30 41.25 26.25L35.7187 13.125H39.375V9.375H27.8062C27 7.125 24.8812 5.625 22.5 5.625ZM22.5 9.375C22.9972 9.375 23.4742 9.57254 23.8258 9.92418C24.1774 10.2758 24.375 10.7527 24.375 11.25C24.375 11.7473 24.1774 12.2242 23.8258 12.5758C23.4742 12.9275 22.9972 13.125 22.5 13.125C22.0027 13.125 21.5258 12.9275 21.1741 12.5758C20.8225 12.2242 20.625 11.7473 20.625 11.25C20.625 10.7527 20.8225 10.2758 21.1741 9.92418C21.5258 9.57254 22.0027 9.375 22.5 9.375ZM10.3125 19.2188L13.125 26.25H7.49996L10.3125 19.2188ZM34.6875 19.2188L37.5 26.25H31.875L34.6875 19.2188Z" fill="#0137AE"/>
</svg>
