<svg width="57" height="44" viewBox="0 0 57 44" fill="none" xmlns="http://www.w3.org/2000/svg">
<path d="M4.25293 32.1797V40H2.91553V32.1797H4.25293ZM6.70752 32.1797V33.2539H0.482422V32.1797H6.70752ZM9.38818 31.75V40H8.09912V31.75H9.38818ZM9.1626 36.8794L8.74365 36.874C8.74723 36.473 8.80273 36.1024 8.91016 35.7622C9.02116 35.422 9.17513 35.1266 9.37207 34.876C9.57259 34.6217 9.8125 34.4266 10.0918 34.2905C10.3711 34.1509 10.6808 34.0811 11.021 34.0811C11.3075 34.0811 11.5653 34.1204 11.7944 34.1992C12.0272 34.278 12.2277 34.4051 12.396 34.5806C12.5643 34.7524 12.6914 34.978 12.7773 35.2573C12.8669 35.533 12.9116 35.8696 12.9116 36.2671V40H11.6118V36.2563C11.6118 35.9771 11.5706 35.755 11.4883 35.5903C11.4095 35.4256 11.2931 35.3075 11.1392 35.2358C10.9852 35.1606 10.7972 35.123 10.5752 35.123C10.3424 35.123 10.1366 35.1696 9.95752 35.2627C9.78206 35.3558 9.63525 35.4829 9.51709 35.644C9.39893 35.8052 9.30941 35.9914 9.24854 36.2026C9.19124 36.4139 9.1626 36.6395 9.1626 36.8794ZM14.4751 37.1587V37.0352C14.4751 36.6162 14.536 36.2277 14.6577 35.8696C14.7795 35.508 14.9549 35.1947 15.1841 34.9297C15.4168 34.6611 15.6997 34.4535 16.0327 34.3066C16.3693 34.1562 16.7489 34.0811 17.1714 34.0811C17.5975 34.0811 17.9771 34.1562 18.3101 34.3066C18.6466 34.4535 18.9313 34.6611 19.1641 34.9297C19.3968 35.1947 19.5741 35.508 19.6958 35.8696C19.8175 36.2277 19.8784 36.6162 19.8784 37.0352V37.1587C19.8784 37.5776 19.8175 37.9661 19.6958 38.3242C19.5741 38.6823 19.3968 38.9956 19.1641 39.2642C18.9313 39.5291 18.6484 39.7368 18.3154 39.8872C17.9824 40.034 17.6047 40.1074 17.1821 40.1074C16.756 40.1074 16.3747 40.034 16.0381 39.8872C15.7051 39.7368 15.4222 39.5291 15.1895 39.2642C14.9567 38.9956 14.7795 38.6823 14.6577 38.3242C14.536 37.9661 14.4751 37.5776 14.4751 37.1587ZM15.7695 37.0352V37.1587C15.7695 37.4201 15.7964 37.6672 15.8501 37.8999C15.9038 38.1326 15.988 38.3368 16.1025 38.5122C16.2171 38.6877 16.3639 38.8255 16.543 38.9258C16.722 39.026 16.9351 39.0762 17.1821 39.0762C17.422 39.0762 17.6297 39.026 17.8052 38.9258C17.9842 38.8255 18.131 38.6877 18.2456 38.5122C18.3602 38.3368 18.4443 38.1326 18.498 37.8999C18.5553 37.6672 18.584 37.4201 18.584 37.1587V37.0352C18.584 36.7773 18.5553 36.5339 18.498 36.3047C18.4443 36.0719 18.3584 35.866 18.2402 35.687C18.1257 35.508 17.9788 35.3683 17.7998 35.2681C17.6243 35.1642 17.4149 35.1123 17.1714 35.1123C16.9279 35.1123 16.7166 35.1642 16.5376 35.2681C16.3621 35.3683 16.2171 35.508 16.1025 35.687C15.988 35.866 15.9038 36.0719 15.8501 36.3047C15.7964 36.5339 15.7695 36.7773 15.7695 37.0352ZM17.5312 31.75L19.019 33.2324V33.2915H17.9717L17.1499 32.4482L16.3281 33.2915H15.3022V33.2217L16.7686 31.75H17.5312ZM22.7471 35.4292V40H21.4526V34.1885H22.6719L22.7471 35.4292ZM22.5161 36.8794L22.0972 36.874C22.1007 36.4622 22.158 36.0845 22.269 35.7407C22.3836 35.397 22.5412 35.1016 22.7417 34.8545C22.9458 34.6074 23.1893 34.4176 23.4722 34.2852C23.755 34.1491 24.0701 34.0811 24.4175 34.0811C24.6968 34.0811 24.9492 34.1204 25.1748 34.1992C25.404 34.2744 25.5991 34.3979 25.7603 34.5698C25.925 34.7417 26.0503 34.9655 26.1362 35.2412C26.2222 35.5133 26.2651 35.8481 26.2651 36.2456V40H24.9653V36.2402C24.9653 35.9609 24.9242 35.7407 24.8418 35.5796C24.763 35.4149 24.6466 35.2985 24.4927 35.2305C24.3423 35.1589 24.1543 35.123 23.9287 35.123C23.7067 35.123 23.508 35.1696 23.3325 35.2627C23.1571 35.3558 23.0085 35.4829 22.8867 35.644C22.7686 35.8052 22.6772 35.9914 22.6128 36.2026C22.5483 36.4139 22.5161 36.6395 22.5161 36.8794ZM31.8086 34.1885H32.9849V39.8389C32.9849 40.3617 32.8739 40.8057 32.6519 41.1709C32.4299 41.5361 32.1201 41.8136 31.7227 42.0034C31.3252 42.1968 30.8651 42.2935 30.3423 42.2935C30.1203 42.2935 29.8732 42.2612 29.6011 42.1968C29.3325 42.1323 29.0711 42.0285 28.8169 41.8853C28.5662 41.7456 28.3568 41.5612 28.1885 41.332L28.7954 40.5693C29.0031 40.8164 29.2323 40.9972 29.4829 41.1118C29.7336 41.2264 29.9967 41.2837 30.2725 41.2837C30.5697 41.2837 30.8221 41.2282 31.0298 41.1172C31.241 41.0098 31.404 40.8504 31.5186 40.6392C31.6331 40.4279 31.6904 40.1701 31.6904 39.8657V35.5044L31.8086 34.1885ZM27.8608 37.1587V37.0459C27.8608 36.6055 27.9146 36.2044 28.022 35.8428C28.1294 35.4775 28.2834 35.1642 28.4839 34.9028C28.6844 34.6379 28.9279 34.4355 29.2144 34.2959C29.5008 34.1527 29.8249 34.0811 30.1865 34.0811C30.5625 34.0811 30.883 34.1491 31.1479 34.2852C31.4165 34.4212 31.6403 34.6164 31.8193 34.8706C31.9984 35.1213 32.138 35.422 32.2383 35.7729C32.3421 36.1203 32.4191 36.507 32.4692 36.9331V37.293C32.4227 37.7083 32.3439 38.0879 32.2329 38.4316C32.1219 38.7754 31.9751 39.0726 31.7925 39.3232C31.6099 39.5739 31.3843 39.7673 31.1157 39.9033C30.8507 40.0394 30.5374 40.1074 30.1758 40.1074C29.8213 40.1074 29.5008 40.034 29.2144 39.8872C28.9315 39.7404 28.688 39.5345 28.4839 39.2695C28.2834 39.0046 28.1294 38.693 28.022 38.335C27.9146 37.9733 27.8608 37.5812 27.8608 37.1587ZM29.1553 37.0459V37.1587C29.1553 37.4237 29.1803 37.6707 29.2305 37.8999C29.2842 38.1291 29.3647 38.3314 29.4722 38.5068C29.5832 38.6787 29.7228 38.8148 29.8911 38.915C30.063 39.0117 30.2653 39.0601 30.498 39.0601C30.8024 39.0601 31.0513 38.9956 31.2446 38.8667C31.4416 38.7378 31.592 38.5641 31.6958 38.3457C31.8032 38.1237 31.8784 37.8766 31.9214 37.6045V36.6323C31.8999 36.4211 31.8551 36.2241 31.7871 36.0415C31.7227 35.8589 31.6349 35.6995 31.5239 35.5635C31.4129 35.4238 31.2733 35.3164 31.105 35.2412C30.9367 35.1624 30.738 35.123 30.5088 35.123C30.276 35.123 30.0737 35.1732 29.9019 35.2734C29.73 35.3737 29.5885 35.5116 29.4775 35.687C29.3701 35.8625 29.2896 36.0666 29.2358 36.2993C29.1821 36.5321 29.1553 36.7809 29.1553 37.0459ZM38.0723 31.75H39.3667V38.7593L39.2432 40H38.0723V31.75ZM43.1587 37.0405V37.1533C43.1587 37.583 43.1104 37.9787 43.0137 38.3403C42.9206 38.6984 42.7773 39.0099 42.584 39.2749C42.3942 39.5399 42.1579 39.7458 41.875 39.8926C41.5957 40.0358 41.2716 40.1074 40.9028 40.1074C40.5412 40.1074 40.2261 40.0394 39.9575 39.9033C39.689 39.7673 39.4634 39.5739 39.2808 39.3232C39.1017 39.0726 38.9567 38.7736 38.8457 38.4263C38.7347 38.0789 38.6559 37.6958 38.6094 37.2769V36.917C38.6559 36.4945 38.7347 36.1113 38.8457 35.7676C38.9567 35.4202 39.1017 35.1213 39.2808 34.8706C39.4634 34.6164 39.6872 34.4212 39.9521 34.2852C40.2207 34.1491 40.534 34.0811 40.8921 34.0811C41.2645 34.0811 41.5921 34.1527 41.875 34.2959C42.1615 34.4391 42.3996 34.6432 42.5894 34.9082C42.7791 35.1696 42.9206 35.4811 43.0137 35.8428C43.1104 36.2044 43.1587 36.6037 43.1587 37.0405ZM41.8643 37.1533V37.0405C41.8643 36.7791 41.8428 36.5339 41.7998 36.3047C41.7568 36.0719 41.6852 35.8678 41.585 35.6924C41.4883 35.5169 41.3558 35.3791 41.1875 35.2788C41.0228 35.175 40.8169 35.123 40.5698 35.123C40.3407 35.123 40.1437 35.1624 39.979 35.2412C39.8143 35.32 39.6764 35.4274 39.5654 35.5635C39.4544 35.6995 39.3667 35.8571 39.3022 36.0361C39.2414 36.2152 39.2002 36.4085 39.1787 36.6162V37.5884C39.2109 37.8569 39.279 38.104 39.3828 38.3296C39.4902 38.5516 39.6406 38.7306 39.834 38.8667C40.0273 38.9992 40.2762 39.0654 40.5806 39.0654C40.8205 39.0654 41.0228 39.0171 41.1875 38.9204C41.3522 38.8237 41.4829 38.6895 41.5796 38.5176C41.6799 38.3421 41.7515 38.138 41.7944 37.9053C41.841 37.6725 41.8643 37.4219 41.8643 37.1533ZM48.0308 38.8345V36.063C48.0308 35.8553 47.9932 35.6763 47.918 35.5259C47.8428 35.3755 47.7282 35.2591 47.5742 35.1768C47.4238 35.0944 47.234 35.0532 47.0049 35.0532C46.7936 35.0532 46.611 35.089 46.457 35.1606C46.3031 35.2323 46.1831 35.3289 46.0972 35.4507C46.0112 35.5724 45.9683 35.7103 45.9683 35.8643H44.6792C44.6792 35.6351 44.7347 35.4131 44.8457 35.1982C44.9567 34.9834 45.1178 34.7918 45.3291 34.6235C45.5404 34.4552 45.7928 34.3228 46.0864 34.2261C46.38 34.1294 46.7095 34.0811 47.0747 34.0811C47.5116 34.0811 47.8983 34.1545 48.2349 34.3013C48.575 34.4481 48.8418 34.6701 49.0352 34.9673C49.2321 35.2609 49.3306 35.6297 49.3306 36.0737V38.6572C49.3306 38.9222 49.3485 39.1603 49.3843 39.3716C49.4237 39.5793 49.4792 39.7601 49.5508 39.9141V40H48.2241C48.1632 39.8604 48.1149 39.6831 48.0791 39.4683C48.0469 39.2498 48.0308 39.0386 48.0308 38.8345ZM48.2188 36.4658L48.2295 37.2661H47.3003C47.0604 37.2661 46.8491 37.2894 46.6665 37.3359C46.4839 37.3789 46.3317 37.4434 46.21 37.5293C46.0882 37.6152 45.9969 37.7191 45.936 37.8408C45.8752 37.9626 45.8447 38.1004 45.8447 38.2544C45.8447 38.4084 45.8805 38.5498 45.9521 38.6787C46.0238 38.804 46.1276 38.9025 46.2637 38.9741C46.4033 39.0457 46.5716 39.0815 46.7686 39.0815C47.0335 39.0815 47.2645 39.0278 47.4614 38.9204C47.6619 38.8094 47.8195 38.6751 47.9341 38.5176C48.0487 38.3564 48.1095 38.2043 48.1167 38.061L48.5356 38.6357C48.4927 38.7826 48.4193 38.9401 48.3154 39.1084C48.2116 39.2767 48.0755 39.4378 47.9072 39.5918C47.7425 39.7422 47.5438 39.8657 47.311 39.9624C47.0819 40.0591 46.8169 40.1074 46.5161 40.1074C46.1366 40.1074 45.7982 40.0322 45.501 39.8818C45.2038 39.7279 44.971 39.522 44.8027 39.2642C44.6344 39.0028 44.5503 38.7074 44.5503 38.3779C44.5503 38.07 44.6076 37.7979 44.7222 37.5615C44.8403 37.3216 45.0122 37.1211 45.2378 36.96C45.467 36.7988 45.7463 36.6771 46.0757 36.5947C46.4051 36.5088 46.7811 36.4658 47.2036 36.4658H48.2188ZM46.4731 33.3667L47.5205 31.75H48.9814L47.5205 33.3667H46.4731ZM50.937 37.1587V37.0352C50.937 36.6162 50.9979 36.2277 51.1196 35.8696C51.2414 35.508 51.4168 35.1947 51.646 34.9297C51.8787 34.6611 52.1616 34.4535 52.4946 34.3066C52.8312 34.1562 53.2108 34.0811 53.6333 34.0811C54.0594 34.0811 54.439 34.1562 54.772 34.3066C55.1086 34.4535 55.3932 34.6611 55.626 34.9297C55.8587 35.1947 56.036 35.508 56.1577 35.8696C56.2795 36.2277 56.3403 36.6162 56.3403 37.0352V37.1587C56.3403 37.5776 56.2795 37.9661 56.1577 38.3242C56.036 38.6823 55.8587 38.9956 55.626 39.2642C55.3932 39.5291 55.1104 39.7368 54.7773 39.8872C54.4443 40.034 54.0666 40.1074 53.644 40.1074C53.2179 40.1074 52.8366 40.034 52.5 39.8872C52.167 39.7368 51.8841 39.5291 51.6514 39.2642C51.4186 38.9956 51.2414 38.6823 51.1196 38.3242C50.9979 37.9661 50.937 37.5776 50.937 37.1587ZM52.2314 37.0352V37.1587C52.2314 37.4201 52.2583 37.6672 52.312 37.8999C52.3657 38.1326 52.4499 38.3368 52.5645 38.5122C52.679 38.6877 52.8258 38.8255 53.0049 38.9258C53.1839 39.026 53.397 39.0762 53.644 39.0762C53.884 39.0762 54.0916 39.026 54.2671 38.9258C54.4461 38.8255 54.5929 38.6877 54.7075 38.5122C54.8221 38.3368 54.9062 38.1326 54.96 37.8999C55.0173 37.6672 55.0459 37.4201 55.0459 37.1587V37.0352C55.0459 36.7773 55.0173 36.5339 54.96 36.3047C54.9062 36.0719 54.8203 35.866 54.7021 35.687C54.5876 35.508 54.4408 35.3683 54.2617 35.2681C54.0863 35.1642 53.8768 35.1123 53.6333 35.1123C53.3898 35.1123 53.1785 35.1642 52.9995 35.2681C52.8241 35.3683 52.679 35.508 52.5645 35.687C52.4499 35.866 52.3657 36.0719 52.312 36.3047C52.2583 36.5339 52.2314 36.7773 52.2314 37.0352Z" fill="black"/>
<path d="M36.6563 11.7328V10.8809C36.6563 6.20584 33.0023 2.4165 28.5001 2.4165C23.9978 2.4165 20.3438 6.20584 20.3438 10.8809V11.7328C20.3453 12.7496 20.0551 13.7456 19.5077 14.6025L18.1688 16.6869C16.9472 18.59 17.88 21.1771 20.0055 21.7788C25.5593 23.3517 31.4408 23.3517 36.9947 21.7788C39.1201 21.1771 40.0529 18.59 38.8313 16.6881L37.4925 14.6038C36.9446 13.7469 36.654 12.751 36.6551 11.734L36.6563 11.7328Z" stroke="black" stroke-width="1.5"/>
<path d="M23.0625 22.958C23.854 25.0702 25.9891 26.583 28.5 26.583C31.0109 26.583 33.146 25.0702 33.9375 22.958" stroke="black" stroke-width="1.5" stroke-linecap="round"/>
</svg>
