<svg width="51" height="46" viewBox="0 0 51 46" fill="none" xmlns="http://www.w3.org/2000/svg">
<path d="M4.13721 34.1797V42H2.7998V34.1797H4.13721ZM6.5918 34.1797V35.2539H0.366699V34.1797H6.5918ZM9.27246 33.75V42H7.9834V33.75H9.27246ZM9.04688 38.8794L8.62793 38.874C8.63151 38.473 8.68701 38.1024 8.79443 37.7622C8.90544 37.422 9.05941 37.1266 9.25635 36.876C9.45687 36.6217 9.69678 36.4266 9.97607 36.2905C10.2554 36.1509 10.5651 36.0811 10.9053 36.0811C11.1917 36.0811 11.4495 36.1204 11.6787 36.1992C11.9115 36.278 12.112 36.4051 12.2803 36.5806C12.4486 36.7524 12.5757 36.978 12.6616 37.2573C12.7511 37.533 12.7959 37.8696 12.7959 38.2671V42H11.4961V38.2563C11.4961 37.9771 11.4549 37.755 11.3726 37.5903C11.2938 37.4256 11.1774 37.3075 11.0234 37.2358C10.8695 37.1606 10.6815 37.123 10.4595 37.123C10.2267 37.123 10.0208 37.1696 9.8418 37.2627C9.66634 37.3558 9.51953 37.4829 9.40137 37.644C9.2832 37.8052 9.19368 37.9914 9.13281 38.2026C9.07552 38.4139 9.04688 38.6395 9.04688 38.8794ZM14.3594 39.1587V39.0352C14.3594 38.6162 14.4202 38.2277 14.542 37.8696C14.6637 37.508 14.8392 37.1947 15.0684 36.9297C15.3011 36.6611 15.584 36.4535 15.917 36.3066C16.2536 36.1562 16.6331 36.0811 17.0557 36.0811C17.4818 36.0811 17.8613 36.1562 18.1943 36.3066C18.5309 36.4535 18.8156 36.6611 19.0483 36.9297C19.2811 37.1947 19.4583 37.508 19.5801 37.8696C19.7018 38.2277 19.7627 38.6162 19.7627 39.0352V39.1587C19.7627 39.5776 19.7018 39.9661 19.5801 40.3242C19.4583 40.6823 19.2811 40.9956 19.0483 41.2642C18.8156 41.5291 18.5327 41.7368 18.1997 41.8872C17.8667 42.034 17.4889 42.1074 17.0664 42.1074C16.6403 42.1074 16.259 42.034 15.9224 41.8872C15.5894 41.7368 15.3065 41.5291 15.0737 41.2642C14.841 40.9956 14.6637 40.6823 14.542 40.3242C14.4202 39.9661 14.3594 39.5776 14.3594 39.1587ZM15.6538 39.0352V39.1587C15.6538 39.4201 15.6807 39.6672 15.7344 39.8999C15.7881 40.1326 15.8722 40.3368 15.9868 40.5122C16.1014 40.6877 16.2482 40.8255 16.4272 40.9258C16.6063 41.026 16.8193 41.0762 17.0664 41.0762C17.3063 41.0762 17.514 41.026 17.6895 40.9258C17.8685 40.8255 18.0153 40.6877 18.1299 40.5122C18.2445 40.3368 18.3286 40.1326 18.3823 39.8999C18.4396 39.6672 18.4683 39.4201 18.4683 39.1587V39.0352C18.4683 38.7773 18.4396 38.5339 18.3823 38.3047C18.3286 38.0719 18.2427 37.866 18.1245 37.687C18.0099 37.508 17.8631 37.3683 17.6841 37.2681C17.5086 37.1642 17.2992 37.1123 17.0557 37.1123C16.8122 37.1123 16.6009 37.1642 16.4219 37.2681C16.2464 37.3683 16.1014 37.508 15.9868 37.687C15.8722 37.866 15.7881 38.0719 15.7344 38.3047C15.6807 38.5339 15.6538 38.7773 15.6538 39.0352ZM17.4155 33.75L18.9033 35.2324V35.2915H17.856L17.0342 34.4482L16.2124 35.2915H15.1865V35.2217L16.6528 33.75H17.4155ZM22.6313 37.4292V42H21.3369V36.1885H22.5562L22.6313 37.4292ZM22.4004 38.8794L21.9814 38.874C21.985 38.4622 22.0423 38.0845 22.1533 37.7407C22.2679 37.397 22.4255 37.1016 22.626 36.8545C22.8301 36.6074 23.0736 36.4176 23.3564 36.2852C23.6393 36.1491 23.9544 36.0811 24.3018 36.0811C24.5811 36.0811 24.8335 36.1204 25.0591 36.1992C25.2882 36.2744 25.4834 36.3979 25.6445 36.5698C25.8092 36.7417 25.9346 36.9655 26.0205 37.2412C26.1064 37.5133 26.1494 37.8481 26.1494 38.2456V42H24.8496V38.2402C24.8496 37.9609 24.8084 37.7407 24.7261 37.5796C24.6473 37.4149 24.5309 37.2985 24.377 37.2305C24.2266 37.1589 24.0386 37.123 23.813 37.123C23.591 37.123 23.3923 37.1696 23.2168 37.2627C23.0413 37.3558 22.8927 37.4829 22.771 37.644C22.6528 37.8052 22.5615 37.9914 22.4971 38.2026C22.4326 38.4139 22.4004 38.6395 22.4004 38.8794ZM31.6929 36.1885H32.8691V41.8389C32.8691 42.3617 32.7581 42.8057 32.5361 43.1709C32.3141 43.5361 32.0044 43.8136 31.6069 44.0034C31.2095 44.1968 30.7493 44.2935 30.2266 44.2935C30.0046 44.2935 29.7575 44.2612 29.4854 44.1968C29.2168 44.1323 28.9554 44.0285 28.7012 43.8853C28.4505 43.7456 28.241 43.5612 28.0728 43.332L28.6797 42.5693C28.8874 42.8164 29.1165 42.9972 29.3672 43.1118C29.6178 43.2264 29.881 43.2837 30.1567 43.2837C30.4539 43.2837 30.7064 43.2282 30.9141 43.1172C31.1253 43.0098 31.2882 42.8504 31.4028 42.6392C31.5174 42.4279 31.5747 42.1701 31.5747 41.8657V37.5044L31.6929 36.1885ZM27.7451 39.1587V39.0459C27.7451 38.6055 27.7988 38.2044 27.9062 37.8428C28.0137 37.4775 28.1676 37.1642 28.3682 36.9028C28.5687 36.6379 28.8122 36.4355 29.0986 36.2959C29.3851 36.1527 29.7091 36.0811 30.0708 36.0811C30.4468 36.0811 30.7673 36.1491 31.0322 36.2852C31.3008 36.4212 31.5246 36.6164 31.7036 36.8706C31.8826 37.1213 32.0223 37.422 32.1226 37.7729C32.2264 38.1203 32.3034 38.507 32.3535 38.9331V39.293C32.307 39.7083 32.2282 40.0879 32.1172 40.4316C32.0062 40.7754 31.8594 41.0726 31.6768 41.3232C31.4941 41.5739 31.2686 41.7673 31 41.9033C30.735 42.0394 30.4217 42.1074 30.0601 42.1074C29.7056 42.1074 29.3851 42.034 29.0986 41.8872C28.8158 41.7404 28.5723 41.5345 28.3682 41.2695C28.1676 41.0046 28.0137 40.693 27.9062 40.335C27.7988 39.9733 27.7451 39.5812 27.7451 39.1587ZM29.0396 39.0459V39.1587C29.0396 39.4237 29.0646 39.6707 29.1147 39.8999C29.1685 40.1291 29.249 40.3314 29.3564 40.5068C29.4674 40.6787 29.6071 40.8148 29.7754 40.915C29.9473 41.0117 30.1496 41.0601 30.3823 41.0601C30.6867 41.0601 30.9355 40.9956 31.1289 40.8667C31.3258 40.7378 31.4762 40.5641 31.5801 40.3457C31.6875 40.1237 31.7627 39.8766 31.8057 39.6045V38.6323C31.7842 38.4211 31.7394 38.2241 31.6714 38.0415C31.6069 37.8589 31.5192 37.6995 31.4082 37.5635C31.2972 37.4238 31.1576 37.3164 30.9893 37.2412C30.821 37.1624 30.6222 37.123 30.3931 37.123C30.1603 37.123 29.958 37.1732 29.7861 37.2734C29.6143 37.3737 29.4728 37.5116 29.3618 37.687C29.2544 37.8625 29.1738 38.0666 29.1201 38.2993C29.0664 38.5321 29.0396 38.7809 29.0396 39.0459ZM40.6152 36.1885V37.1338H37.3389V36.1885H40.6152ZM38.2842 34.7651H39.5786V40.394C39.5786 40.5731 39.6037 40.7109 39.6538 40.8076C39.7075 40.9007 39.7809 40.9634 39.874 40.9956C39.9671 41.0278 40.0763 41.0439 40.2017 41.0439C40.2912 41.0439 40.3771 41.0386 40.4595 41.0278C40.5418 41.0171 40.6081 41.0063 40.6582 40.9956L40.6636 41.9839C40.5562 42.0161 40.4308 42.0448 40.2876 42.0698C40.1479 42.0949 39.9868 42.1074 39.8042 42.1074C39.507 42.1074 39.2438 42.0555 39.0146 41.9517C38.7855 41.8442 38.6064 41.6706 38.4775 41.4307C38.3486 41.1908 38.2842 40.8721 38.2842 40.4746V34.7651ZM43.5 36.1885V42H42.2002V36.1885H43.5ZM42.1143 34.6631C42.1143 34.4661 42.1787 34.3032 42.3076 34.1743C42.4401 34.0418 42.6227 33.9756 42.8555 33.9756C43.0846 33.9756 43.2655 34.0418 43.3979 34.1743C43.5304 34.3032 43.5967 34.4661 43.5967 34.6631C43.5967 34.8564 43.5304 35.0176 43.3979 35.1465C43.2655 35.2754 43.0846 35.3398 42.8555 35.3398C42.6227 35.3398 42.4401 35.2754 42.3076 35.1465C42.1787 35.0176 42.1143 34.8564 42.1143 34.6631ZM46.7017 37.4292V42H45.4072V36.1885H46.6265L46.7017 37.4292ZM46.4707 38.8794L46.0518 38.874C46.0553 38.4622 46.1126 38.0845 46.2236 37.7407C46.3382 37.397 46.4958 37.1016 46.6963 36.8545C46.9004 36.6074 47.1439 36.4176 47.4268 36.2852C47.7096 36.1491 48.0247 36.0811 48.3721 36.0811C48.6514 36.0811 48.9038 36.1204 49.1294 36.1992C49.3586 36.2744 49.5537 36.3979 49.7148 36.5698C49.8796 36.7417 50.0049 36.9655 50.0908 37.2412C50.1768 37.5133 50.2197 37.8481 50.2197 38.2456V42H48.9199V38.2402C48.9199 37.9609 48.8787 37.7407 48.7964 37.5796C48.7176 37.4149 48.6012 37.2985 48.4473 37.2305C48.2969 37.1589 48.1089 37.123 47.8833 37.123C47.6613 37.123 47.4626 37.1696 47.2871 37.2627C47.1117 37.3558 46.9631 37.4829 46.8413 37.644C46.7231 37.8052 46.6318 37.9914 46.5674 38.2026C46.5029 38.4139 46.4707 38.6395 46.4707 38.8794Z" fill="black"/>
<path d="M24.5 26C26.1418 26.002 27.7679 25.6796 29.2847 25.0513C30.8015 24.423 32.1793 23.5012 33.3388 22.3388C34.5012 21.1793 35.423 19.8015 36.0513 18.2847C36.6796 16.7679 37.002 15.1418 37 13.5C37.002 11.8582 36.6796 10.2322 36.0513 8.71532C35.423 7.19848 34.5012 5.82074 33.3388 4.66126C32.1793 3.49886 30.8015 2.57702 29.2847 1.94871C27.7679 1.32039 26.1418 0.997985 24.5 1.00001C22.8582 0.997985 21.2322 1.32039 19.7153 1.94871C18.1985 2.57702 16.8207 3.49886 15.6613 4.66126C14.4989 5.82074 13.577 7.19848 12.9487 8.71532C12.3204 10.2322 11.998 11.8582 12 13.5C11.998 15.1418 12.3204 16.7679 12.9487 18.2847C13.577 19.8015 14.4989 21.1793 15.6613 22.3388C16.8207 23.5012 18.1985 24.423 19.7153 25.0513C21.2322 25.6796 22.8582 26.002 24.5 26Z" stroke="black" stroke-width="2" stroke-linejoin="round"/>
<path fill-rule="evenodd" clip-rule="evenodd" d="M24.5 5.375C24.9144 5.375 25.3118 5.53962 25.6049 5.83265C25.8979 6.12567 26.0625 6.5231 26.0625 6.9375C26.0625 7.3519 25.8979 7.74933 25.6049 8.04235C25.3118 8.33538 24.9144 8.5 24.5 8.5C24.0856 8.5 23.6882 8.33538 23.3951 8.04235C23.1021 7.74933 22.9375 7.3519 22.9375 6.9375C22.9375 6.5231 23.1021 6.12567 23.3951 5.83265C23.6882 5.53962 24.0856 5.375 24.5 5.375Z" fill="black"/>
<path d="M24.8125 19.75V11H23.5625M22.625 19.75H27" stroke="black" stroke-width="2" stroke-linecap="round" stroke-linejoin="round"/>
</svg>
