<svg width="54" height="46" viewBox="0 0 54 46" fill="none" xmlns="http://www.w3.org/2000/svg">
<path d="M4.49854 34.1797V42H3.16113V34.1797H4.49854ZM6.95312 34.1797V35.2539H0.728027V34.1797H6.95312ZM9.26855 37.2949V42H7.97412V36.1885H9.20947L9.26855 37.2949ZM11.0464 36.1509L11.0356 37.354C10.9569 37.3397 10.8709 37.3289 10.7778 37.3218C10.6883 37.3146 10.5988 37.311 10.5093 37.311C10.2873 37.311 10.0921 37.3433 9.92383 37.4077C9.75553 37.4686 9.6141 37.5581 9.49951 37.6763C9.38851 37.7909 9.30257 37.9305 9.2417 38.0952C9.18083 38.2599 9.14502 38.4443 9.13428 38.6484L8.83887 38.6699C8.83887 38.3047 8.87467 37.9663 8.94629 37.6548C9.0179 37.3433 9.12533 37.0693 9.26855 36.833C9.41536 36.5967 9.59798 36.4123 9.81641 36.2798C10.0384 36.1473 10.2944 36.0811 10.5845 36.0811C10.6632 36.0811 10.7474 36.0882 10.8369 36.1025C10.93 36.1169 10.9998 36.133 11.0464 36.1509ZM15.4404 40.8345V38.063C15.4404 37.8553 15.4028 37.6763 15.3276 37.5259C15.2524 37.3755 15.1379 37.2591 14.9839 37.1768C14.8335 37.0944 14.6437 37.0532 14.4146 37.0532C14.2033 37.0532 14.0207 37.089 13.8667 37.1606C13.7127 37.2323 13.5928 37.3289 13.5068 37.4507C13.4209 37.5724 13.3779 37.7103 13.3779 37.8643H12.0889C12.0889 37.6351 12.1444 37.4131 12.2554 37.1982C12.3664 36.9834 12.5275 36.7918 12.7388 36.6235C12.95 36.4552 13.2025 36.3228 13.4961 36.2261C13.7897 36.1294 14.1191 36.0811 14.4844 36.0811C14.9212 36.0811 15.3079 36.1545 15.6445 36.3013C15.9847 36.4481 16.2515 36.6701 16.4448 36.9673C16.6418 37.2609 16.7402 37.6297 16.7402 38.0737V40.6572C16.7402 40.9222 16.7581 41.1603 16.7939 41.3716C16.8333 41.5793 16.8888 41.7601 16.9604 41.9141V42H15.6338C15.5729 41.8604 15.5246 41.6831 15.4888 41.4683C15.4565 41.2498 15.4404 41.0386 15.4404 40.8345ZM15.6284 38.4658L15.6392 39.2661H14.71C14.4701 39.2661 14.2588 39.2894 14.0762 39.3359C13.8936 39.3789 13.7414 39.4434 13.6196 39.5293C13.4979 39.6152 13.4066 39.7191 13.3457 39.8408C13.2848 39.9626 13.2544 40.1004 13.2544 40.2544C13.2544 40.4084 13.2902 40.5498 13.3618 40.6787C13.4334 40.804 13.5373 40.9025 13.6733 40.9741C13.813 41.0457 13.9813 41.0815 14.1782 41.0815C14.4432 41.0815 14.6742 41.0278 14.8711 40.9204C15.0716 40.8094 15.2292 40.6751 15.3438 40.5176C15.4583 40.3564 15.5192 40.2043 15.5264 40.061L15.9453 40.6357C15.9023 40.7826 15.8289 40.9401 15.7251 41.1084C15.6213 41.2767 15.4852 41.4378 15.3169 41.5918C15.1522 41.7422 14.9535 41.8657 14.7207 41.9624C14.4915 42.0591 14.2266 42.1074 13.9258 42.1074C13.5462 42.1074 13.2078 42.0322 12.9106 41.8818C12.6134 41.7279 12.3807 41.522 12.2124 41.2642C12.0441 41.0028 11.96 40.7074 11.96 40.3779C11.96 40.07 12.0173 39.7979 12.1318 39.5615C12.25 39.3216 12.4219 39.1211 12.6475 38.96C12.8766 38.7988 13.1559 38.6771 13.4854 38.5947C13.8148 38.5088 14.1908 38.4658 14.6133 38.4658H15.6284ZM19.8774 37.4292V42H18.583V36.1885H19.8022L19.8774 37.4292ZM19.6465 38.8794L19.2275 38.874C19.2311 38.4622 19.2884 38.0845 19.3994 37.7407C19.514 37.397 19.6715 37.1016 19.8721 36.8545C20.0762 36.6074 20.3197 36.4176 20.6025 36.2852C20.8854 36.1491 21.2005 36.0811 21.5479 36.0811C21.8271 36.0811 22.0796 36.1204 22.3052 36.1992C22.5343 36.2744 22.7295 36.3979 22.8906 36.5698C23.0553 36.7417 23.1807 36.9655 23.2666 37.2412C23.3525 37.5133 23.3955 37.8481 23.3955 38.2456V42H22.0957V38.2402C22.0957 37.9609 22.0545 37.7407 21.9722 37.5796C21.8934 37.4149 21.777 37.2985 21.623 37.2305C21.4727 37.1589 21.2847 37.123 21.0591 37.123C20.8371 37.123 20.6383 37.1696 20.4629 37.2627C20.2874 37.3558 20.1388 37.4829 20.0171 37.644C19.8989 37.8052 19.8076 37.9914 19.7432 38.2026C19.6787 38.4139 19.6465 38.6395 19.6465 38.8794ZM28.939 36.1885H30.1152V41.8389C30.1152 42.3617 30.0042 42.8057 29.7822 43.1709C29.5602 43.5361 29.2505 43.8136 28.853 44.0034C28.4556 44.1968 27.9954 44.2935 27.4727 44.2935C27.2507 44.2935 27.0036 44.2612 26.7314 44.1968C26.4629 44.1323 26.2015 44.0285 25.9473 43.8853C25.6966 43.7456 25.4871 43.5612 25.3188 43.332L25.9258 42.5693C26.1335 42.8164 26.3626 42.9972 26.6133 43.1118C26.8639 43.2264 27.1271 43.2837 27.4028 43.2837C27.7 43.2837 27.9525 43.2282 28.1602 43.1172C28.3714 43.0098 28.5343 42.8504 28.6489 42.6392C28.7635 42.4279 28.8208 42.1701 28.8208 41.8657V37.5044L28.939 36.1885ZM24.9912 39.1587V39.0459C24.9912 38.6055 25.0449 38.2044 25.1523 37.8428C25.2598 37.4775 25.4137 37.1642 25.6143 36.9028C25.8148 36.6379 26.0583 36.4355 26.3447 36.2959C26.6312 36.1527 26.9552 36.0811 27.3169 36.0811C27.6929 36.0811 28.0133 36.1491 28.2783 36.2852C28.5469 36.4212 28.7707 36.6164 28.9497 36.8706C29.1287 37.1213 29.2684 37.422 29.3687 37.7729C29.4725 38.1203 29.5495 38.507 29.5996 38.9331V39.293C29.5531 39.7083 29.4743 40.0879 29.3633 40.4316C29.2523 40.7754 29.1055 41.0726 28.9229 41.3232C28.7402 41.5739 28.5146 41.7673 28.2461 41.9033C27.9811 42.0394 27.6678 42.1074 27.3062 42.1074C26.9517 42.1074 26.6312 42.034 26.3447 41.8872C26.0618 41.7404 25.8184 41.5345 25.6143 41.2695C25.4137 41.0046 25.2598 40.693 25.1523 40.335C25.0449 39.9733 24.9912 39.5812 24.9912 39.1587ZM26.2856 39.0459V39.1587C26.2856 39.4237 26.3107 39.6707 26.3608 39.8999C26.4146 40.1291 26.4951 40.3314 26.6025 40.5068C26.7135 40.6787 26.8532 40.8148 27.0215 40.915C27.1934 41.0117 27.3957 41.0601 27.6284 41.0601C27.9328 41.0601 28.1816 40.9956 28.375 40.8667C28.5719 40.7378 28.7223 40.5641 28.8262 40.3457C28.9336 40.1237 29.0088 39.8766 29.0518 39.6045V38.6323C29.0303 38.4211 28.9855 38.2241 28.9175 38.0415C28.853 37.8589 28.7653 37.6995 28.6543 37.5635C28.5433 37.4238 28.4036 37.3164 28.2354 37.2412C28.0671 37.1624 27.8683 37.123 27.6392 37.123C27.4064 37.123 27.2041 37.1732 27.0322 37.2734C26.8604 37.3737 26.7189 37.5116 26.6079 37.687C26.5005 37.8625 26.4199 38.0666 26.3662 38.2993C26.3125 38.5321 26.2856 38.7809 26.2856 39.0459ZM37.5713 41.0762C37.7826 41.0762 37.9723 41.035 38.1406 40.9526C38.3125 40.8667 38.4504 40.7485 38.5542 40.5981C38.6616 40.4478 38.7207 40.2741 38.7314 40.0771H39.9507C39.9435 40.4531 39.8325 40.7951 39.6177 41.103C39.4028 41.411 39.1182 41.6562 38.7637 41.8389C38.4092 42.0179 38.0171 42.1074 37.5874 42.1074C37.1434 42.1074 36.7567 42.0322 36.4272 41.8818C36.0978 41.7279 35.8239 41.5166 35.6055 41.248C35.387 40.9795 35.2223 40.6698 35.1113 40.3188C35.0039 39.9679 34.9502 39.592 34.9502 39.1909V39.0029C34.9502 38.6019 35.0039 38.2259 35.1113 37.875C35.2223 37.5205 35.387 37.209 35.6055 36.9404C35.8239 36.6719 36.0978 36.4624 36.4272 36.312C36.7567 36.158 37.1416 36.0811 37.582 36.0811C38.0475 36.0811 38.4557 36.1742 38.8066 36.3604C39.1576 36.543 39.4333 36.799 39.6338 37.1284C39.8379 37.4543 39.9435 37.8338 39.9507 38.2671H38.7314C38.7207 38.0522 38.667 37.8589 38.5703 37.687C38.4772 37.5116 38.3447 37.3719 38.1729 37.2681C38.0046 37.1642 37.8022 37.1123 37.5659 37.1123C37.3045 37.1123 37.0879 37.166 36.916 37.2734C36.7441 37.3773 36.6099 37.5205 36.5132 37.7031C36.4165 37.8822 36.3467 38.0845 36.3037 38.3101C36.2643 38.5321 36.2446 38.763 36.2446 39.0029V39.1909C36.2446 39.4308 36.2643 39.6636 36.3037 39.8892C36.3431 40.1147 36.4111 40.3171 36.5078 40.4961C36.6081 40.6715 36.7441 40.813 36.916 40.9204C37.0879 41.0243 37.3063 41.0762 37.5713 41.0762ZM42.7227 33.75V42H41.4336V33.75H42.7227ZM42.4971 38.8794L42.0781 38.874C42.0817 38.473 42.1372 38.1024 42.2446 37.7622C42.3556 37.422 42.5096 37.1266 42.7065 36.876C42.9071 36.6217 43.147 36.4266 43.4263 36.2905C43.7056 36.1509 44.0153 36.0811 44.3555 36.0811C44.6419 36.0811 44.8997 36.1204 45.1289 36.1992C45.3617 36.278 45.5622 36.4051 45.7305 36.5806C45.8988 36.7524 46.0259 36.978 46.1118 37.2573C46.2013 37.533 46.2461 37.8696 46.2461 38.2671V42H44.9463V38.2563C44.9463 37.9771 44.9051 37.755 44.8228 37.5903C44.744 37.4256 44.6276 37.3075 44.4736 37.2358C44.3197 37.1606 44.1317 37.123 43.9097 37.123C43.6769 37.123 43.471 37.1696 43.292 37.2627C43.1165 37.3558 42.9697 37.4829 42.8516 37.644C42.7334 37.8052 42.6439 37.9914 42.583 38.2026C42.5257 38.4139 42.4971 38.6395 42.4971 38.8794ZM51.5532 40.6304V36.1885H52.853V42H51.6284L51.5532 40.6304ZM51.7358 39.4219L52.1709 39.4111C52.1709 39.8014 52.1279 40.1613 52.042 40.4907C51.9561 40.8166 51.8236 41.1012 51.6445 41.3447C51.4655 41.5846 51.2363 41.7726 50.957 41.9087C50.6777 42.0412 50.3429 42.1074 49.9526 42.1074C49.6698 42.1074 49.4102 42.0662 49.1738 41.9839C48.9375 41.9015 48.7334 41.7744 48.5615 41.6025C48.3932 41.4307 48.2625 41.2069 48.1694 40.9312C48.0763 40.6554 48.0298 40.326 48.0298 39.9429V36.1885H49.3242V39.9536C49.3242 40.1649 49.3493 40.3421 49.3994 40.4854C49.4495 40.625 49.5176 40.7378 49.6035 40.8237C49.6895 40.9097 49.7897 40.9705 49.9043 41.0063C50.0189 41.0422 50.1406 41.0601 50.2695 41.0601C50.6383 41.0601 50.9284 40.9884 51.1396 40.8452C51.3545 40.6984 51.5067 40.5015 51.5962 40.2544C51.6893 40.0073 51.7358 39.7298 51.7358 39.4219ZM50.9409 35.2271H49.9795L49.9312 34.459C50.1138 34.4482 50.2606 34.4303 50.3716 34.4053C50.4826 34.3766 50.5632 34.3372 50.6133 34.2871C50.667 34.2334 50.6938 34.1636 50.6938 34.0776C50.6938 34.006 50.6724 33.9451 50.6294 33.895C50.59 33.8449 50.5327 33.8055 50.4575 33.7769C50.3823 33.7446 50.2946 33.7231 50.1943 33.7124C50.0941 33.6981 49.9849 33.6909 49.8667 33.6909L49.9043 33.041C50.2087 33.041 50.4754 33.0661 50.7046 33.1162C50.9373 33.1628 51.1307 33.2308 51.2847 33.3203C51.4422 33.4098 51.5604 33.5173 51.6392 33.6426C51.7215 33.7679 51.7627 33.9093 51.7627 34.0669C51.7627 34.3247 51.6768 34.5145 51.5049 34.6362C51.333 34.758 51.145 34.8332 50.9409 34.8618V35.2271Z" fill="black"/>
<path d="M25.4651 3.35981C25.8751 3.0408 26.3744 2.85747 26.8934 2.83529C27.4125 2.81311 27.9255 2.95319 28.3613 3.23606L28.5351 3.36106L39.0151 11.5111C39.9163 12.2123 39.4776 13.6261 38.3913 13.7423L38.2463 13.7498H37.0001V23.7498C37.0003 24.3805 36.7621 24.988 36.3332 25.4505C35.9043 25.913 35.3165 26.1963 34.6876 26.2436L34.5001 26.2498H19.5001C18.8696 26.2497 18.2624 26.0113 17.8002 25.5825C17.338 25.1537 17.0548 24.566 17.0076 23.9373L17.0001 23.7498V13.7498H15.7538C14.6126 13.7498 14.0888 12.3648 14.8751 11.6061L14.9851 11.5111L25.4651 3.35981ZM27.0001 5.33356L19.0313 11.5311C19.3176 11.7623 19.5001 12.1161 19.5001 12.5123V23.7498H23.2501V17.4998C23.2501 16.5052 23.6451 15.5514 24.3484 14.8482C25.0517 14.1449 26.0055 13.7498 27.0001 13.7498C27.9946 13.7498 28.9484 14.1449 29.6517 14.8482C30.355 15.5514 30.7501 16.5052 30.7501 17.4998V23.7498H34.5001V12.5123C34.5001 12.1161 34.6826 11.7623 34.9688 11.5311L27.0001 5.33356ZM27.0001 16.2498C26.6685 16.2498 26.3506 16.3815 26.1162 16.6159C25.8818 16.8503 25.7501 17.1683 25.7501 17.4998V23.7498H28.2501V17.4998C28.2501 17.1683 28.1184 16.8503 27.8839 16.6159C27.6495 16.3815 27.3316 16.2498 27.0001 16.2498Z" fill="black"/>
</svg>
