<svg width="32" height="32" viewBox="0 0 32 32" fill="none" xmlns="http://www.w3.org/2000/svg">
<path d="M3.03 31.875C2.16625 31.875 1.44563 31.5863 0.868125 31.0088C0.290625 30.4312 0.00125 29.71 0 28.845V4.905C0 4.04125 0.289375 3.32062 0.868125 2.74312C1.44688 2.16562 2.16687 1.87625 3.02812 1.875H20.4806V3.75H3.03C2.74125 3.75 2.47625 3.87 2.235 4.11C1.99375 4.35 1.87375 4.615 1.875 4.905V28.8469C1.875 29.1344 1.995 29.3988 2.235 29.64C2.475 29.8813 2.73937 30.0012 3.02812 30H26.9719C27.2594 30 27.5238 29.88 27.765 29.64C28.0063 29.4 28.1262 29.1356 28.125 28.8469V11.3944H30V28.8469C30 29.7094 29.7113 30.43 29.1338 31.0088C28.5562 31.5875 27.835 31.8762 26.97 31.875H3.03ZM8.4375 25.3125V23.4375H21.5625V25.3125H8.4375ZM8.4375 19.6875V17.8125H21.5625V19.6875H8.4375ZM8.4375 14.0625V12.1875H21.5625V14.0625H8.4375ZM26.25 9.375V5.625H22.5V3.75H26.25V0H28.125V3.75H31.875V5.625H28.125V9.375H26.25Z" fill="#0137AE"/>
</svg>
